<svg version="1.1"
	 xmlns="http://www.w3.org/2000/svg" xmlns:xlink="http://www.w3.org/1999/xlink" xmlns:a="http://ns.adobe.com/AdobeSVGViewerExtensions/3.0/"
	 x="0px" y="0px" width="590px" height="91px" viewBox="0 0 590 91" overflow="visible" enable-background="new 0 0 590 91"
	 xml:space="preserve">
<defs>
</defs>
<g>
	<defs>
		<rect id="SVGID_1_" y="0.001" width="589.872" height="91.231"/>
	</defs>
	<clipPath id="SVGID_2_">
		<use xlink:href="#SVGID_1_"  overflow="visible"/>
	</clipPath>
	<path clip-path="url(#SVGID_2_)" fill="#004FA3" d="M273.592,71.873l14.87,1.606c-2.897,5.759-7.247,10.155-13.037,13.194
		c-5.795,3.043-12.583,4.559-20.363,4.559c-8.755,0-15.603-1.888-20.532-5.672c-4.93-3.781-7.395-9.263-7.395-16.456
		c0-5.84,1.651-11.177,4.951-16.017c3.304-4.847,7.88-8.553,13.735-11.127c5.858-2.563,12.232-3.847,19.13-3.847
		c7.739,0,14.001,1.491,18.787,4.475c4.78,2.983,7.594,7.05,8.439,12.194l-14.093,0.984c-0.785-2.988-2.29-5.158-4.526-6.502
		c-2.235-1.343-5.212-2.017-8.928-2.017c-4.08,0-7.885,0.888-11.428,2.662c-3.537,1.773-6.365,4.542-8.486,8.314
		c-2.12,3.772-3.178,7.538-3.178,11.292c0,4.113,1.376,7.285,4.136,9.521c2.754,2.246,6.188,3.369,10.302,3.369
		c3.814,0,7.313-0.889,10.497-2.664C269.651,77.971,272.029,75.349,273.592,71.873"/>
	<polygon clip-path="url(#SVGID_2_)" fill="#004FA3" points="326.741,72.96 305.76,72.96 300.707,90.305 289.558,90.305 
		300.853,51.511 312.004,51.511 307.655,66.455 328.637,66.455 332.985,51.511 344.14,51.511 332.846,90.305 321.689,90.305 	"/>
	<path clip-path="url(#SVGID_2_)" fill="#004FA3" d="M377.219,81.708h-21.399l-6.564,8.597h-11.436l30.51-38.794h12.437
		l8.768,38.794H378.99L377.219,81.708z M375.879,75.206l-3.206-15.569l-11.89,15.569H375.879z"/>
	<path clip-path="url(#SVGID_2_)" fill="#004FA3" d="M405.448,90.305h-11.151l11.292-38.794h24.016c4.134,0,7.352,0.302,9.646,0.912
		c2.302,0.612,4.157,1.723,5.576,3.344c1.413,1.627,2.122,3.592,2.122,5.907c0,3.296-1.385,6.019-4.137,8.163
		c-2.771,2.144-6.94,3.47-12.527,3.976c1.432,0.919,2.77,2.13,4.025,3.628c2.48,3.035,5.25,7.32,8.303,12.864h-11.924
		c-0.962-2.183-2.839-5.594-5.64-10.218c-1.533-2.506-3.147-4.187-4.878-5.047c-1.049-0.505-2.901-0.769-5.523-0.769h-4.537
		L405.448,90.305z M411.803,68.464h5.91c5.982,0,9.951-0.259,11.906-0.768c1.962-0.509,3.488-1.312,4.59-2.411
		c1.108-1.102,1.663-2.249,1.663-3.453c0-1.414-0.8-2.474-2.394-3.183c-0.982-0.425-3.113-0.639-6.387-0.639h-12.246L411.803,68.464
		z"/>
	<polygon clip-path="url(#SVGID_2_)" fill="#004FA3" points="468.531,90.305 457.379,90.305 466.78,58.011 450.947,58.011 
		452.727,51.511 495.319,51.511 493.54,58.011 477.933,58.011 	"/>
	<polygon clip-path="url(#SVGID_2_)" fill="#004FA3" points="488.866,90.305 500.158,51.511 540.281,51.511 538.422,58.011 
		509.395,58.011 506.734,66.759 534.856,66.759 532.997,73.265 504.756,73.265 501.565,83.796 533.081,83.796 531.145,90.305 	"/>
	<path clip-path="url(#SVGID_2_)" fill="#004FA3" d="M548.373,90.305h-11.154l11.292-38.794h24.017c4.134,0,7.352,0.302,9.653,0.912
		c2.295,0.612,4.154,1.723,5.567,3.344c1.423,1.627,2.123,3.592,2.123,5.907c0,3.296-1.378,6.019-4.136,8.163
		c-2.766,2.144-6.941,3.47-12.521,3.976c1.428,0.919,2.762,2.13,4.021,3.628c2.487,3.035,5.253,7.32,8.306,12.864h-11.931
		c-0.955-2.183-2.839-5.594-5.636-10.218c-1.53-2.506-3.151-4.187-4.867-5.047c-1.06-0.505-2.905-0.769-5.534-0.769h-4.533
		L548.373,90.305z M554.726,68.464h5.905c5.986,0,9.955-0.259,11.91-0.768c1.962-0.509,3.495-1.312,4.597-2.411
		c1.105-1.102,1.667-2.249,1.667-3.453c0-1.414-0.804-2.474-2.4-3.183c-0.99-0.425-3.117-0.639-6.383-0.639h-12.247L554.726,68.464z
		"/>
	<path clip-path="url(#SVGID_2_)" fill="#ED174E" d="M61.653,49.091c0.532,2.511,1.914,9.86,3.297,11.885
		c1.065,1.548,4.042,1.548,5.846,1.839l-0.956,3.284c-5.21-0.094-10.312-0.294-15.517-0.382c-4.895,0.088-9.78,0.288-14.672,0.382
		l0.957-3.284c3.401-0.193,8.502,0.095,8.502-4.251c0-1.936-0.423-4.259-0.744-6.187l-1.167-6.572H24.235
		c-1.807,2.896-6.374,9.858-6.374,12.759c0,3.865,4.994,3.865,8.077,4.251l-0.958,3.284c-4.036-0.094-8.079-0.294-12.117-0.382
		C8.611,65.805,4.25,66.005,0,66.099l0.958-3.284c7.122-0.586,9.883-5.414,13.184-10.538l18.812-29.472
		c5.1-7.149,10.203-14.204,15.307-21.546h4.89L61.653,49.091z M42.734,17.393h-0.212L27.001,41.552h19.558L42.734,17.393z"/>
	<path clip-path="url(#SVGID_2_)" fill="#ED174E" d="M78.556,53.923c1.486-4.639,5.106-16.426,5.106-20.87
		c0-0.969-0.537-2.32-1.918-2.32c-2.658,0-5.955,6.378-7.013,8.309l-2.235-0.963c2.976-5.802,7.762-13.824,15.838-13.824
		c4.468,0,7.017,2.898,7.017,6.864c0,2.125-0.317,4.249-0.851,6.086l0.212,0.194c3.297-5.798,9.57-13.144,17.646-13.144
		c4.573,0,7.763,2.415,7.763,6.767c0,2.125-0.533,4.252-0.958,6.183l0.215,0.194c3.614-5.991,8.927-13.144,17.536-13.144
		c5.422,0,8.612,2.706,8.612,7.541c0,3.19-1.488,7.826-2.555,10.915l-2.014,5.609c-0.748,2.028-3.511,8.497-3.511,10.435
		c0,0.87,0.746,2.13,1.805,2.13c2.979,0,6.487-6.287,7.763-8.118l2.124,1.058c-3.081,5.702-8.397,13.335-16.263,13.335
		c-4.465,0-7.656-2.804-7.656-6.86c0-2.7,1.705-8.022,2.659-10.726l2.127-5.797c0.851-2.414,3.506-9.081,3.506-11.306
		c0-1.255-0.956-2.414-2.337-2.414c-7.333,0-15.199,19.809-17.007,24.932l-3.827,10.919H98.862l7.544-23.195
		c0.853-2.317,2.657-7.246,2.657-9.564c0-1.447-0.425-3.091-2.234-3.091c-8.076,0-14.347,18.359-16.368,23.867l-4.357,11.983H74.517
		L78.556,53.923z"/>
	<path clip-path="url(#SVGID_2_)" fill="#ED174E" d="M188.896,54.599c-4.893,6.573-11.693,12.561-20.836,12.561
		c-9.673,0-15.309-5.503-15.309-14.393c0-14.403,11.696-28.511,28.171-28.511c5.527,0,12.97,2.028,12.97,8.12
		c0,10.917-18.819,14.589-28.066,16.715c-0.315,1.839-0.633,3.677-0.633,5.509c0,3.771,2.23,7.251,6.801,7.251
		c5.953,0,10.737-5.222,14.245-9.083L188.896,54.599z M183.792,31.12c0-2.225-1.381-3.966-3.93-3.966
		c-7.659,0-11.591,13.531-13.079,18.844C173.908,44.068,183.792,38.751,183.792,31.12"/>
	<path clip-path="url(#SVGID_2_)" fill="#ED174E" d="M210.683,65.907H198.78l4.145-12.082c1.807-5.314,4.57-15.073,4.57-20.581
		c0-1.063-0.209-2.412-1.591-2.412c-2.979,0-5.953,6.279-7.019,8.404l-2.34-0.971c2.981-5.889,7.974-14.009,16.159-14.009
		c4.358,0,6.487,3.19,6.487,6.767c0,2.802-0.639,5.509-0.958,8.02l0.214,0.193c2.976-5.797,7.334-14.98,15.731-14.98
		c4.252,0,7.547,2.51,7.547,6.477c0,3.476-2.655,5.699-6.378,5.699c-4.567,0-4.358-3.962-6.91-3.962
		c-5.742,0-12.329,18.749-13.923,23.092L210.683,65.907z"/>
	<path clip-path="url(#SVGID_2_)" fill="#ED174E" d="M272.445,52.958c-3.293,6.09-9.459,14.201-17.753,14.201
		c-4.781,0-7.653-2.993-7.653-7.341c0-3.484,1.595-7.635,2.872-10.918l2.337-6.282c0.851-2.129,3.295-8.119,3.295-10.149
		c0-1.35-0.851-2.414-2.34-2.414c-3.081,0-7.229,6.185-8.715,8.501l-2.021-1.06c3.721-5.797,9.357-13.242,17.542-13.242
		c4.356,0,7.76,2.415,7.76,6.671c0,3.187-1.593,7.154-2.656,10.24l-4.257,11.692c-0.531,1.447-1.593,3.96-1.593,5.513
		c0,1.156,1.062,2.413,2.446,2.413c3.72,0,6.909-6.279,8.717-8.699L272.445,52.958z M259.158,6.187c0-3.479,3.083-6.187,6.909-6.187
		c3.72,0,6.697,2.806,6.697,6.187c0,3.285-2.977,6.185-6.697,6.185C262.241,12.372,259.158,9.666,259.158,6.187"/>
</g>
</svg>
