<svg version="1.1"
	 xmlns="http://www.w3.org/2000/svg" xmlns:xlink="http://www.w3.org/1999/xlink" xmlns:a="http://ns.adobe.com/AdobeSVGViewerExtensions/3.0/"
	 x="0px" y="0px" width="104px" height="104px" viewBox="0 0 104 104" overflow="visible" enable-background="new 0 0 104 104"
	 xml:space="preserve" fill="#ffffff">
<defs>
</defs>
<g>
	<defs>
		<rect id="SVGID_1_" width="104" height="104"/>
	</defs>
	<clipPath id="SVGID_2_">
		<use xlink:href="#SVGID_1_"  overflow="visible"/>
	</clipPath>
	
		<circle clip-path="url(#SVGID_2_)" fill="none" stroke="#ffffff" stroke-width="3" stroke-miterlimit="10" cx="52" cy="52" r="50.5"/>
	<path clip-path="url(#SVGID_2_)" d="M78.693,43.274l-8.559-10.807c-0.008-0.009-0.018-0.016-0.026-0.025
		c-0.025-0.029-0.055-0.056-0.085-0.082c-0.029-0.028-0.061-0.057-0.096-0.081c-0.181-0.135-0.4-0.219-0.636-0.219H34.693
		c-0.235,0-0.454,0.083-0.636,0.218c-0.033,0.026-0.066,0.054-0.096,0.083c-0.029,0.027-0.058,0.052-0.084,0.082
		c-0.008,0.009-0.018,0.015-0.026,0.024L25.2,43.389c-0.001,0-0.001,0.002-0.002,0.003c0,0.001-0.002,0.002-0.002,0.003
		c-0.047,0.061-0.086,0.124-0.119,0.19c-0.003,0.006-0.004,0.012-0.006,0.017c-0.004,0.008-0.006,0.018-0.01,0.025
		c-0.009,0.021-0.016,0.042-0.024,0.064c-0.019,0.051-0.033,0.102-0.044,0.153c-0.004,0.023-0.008,0.046-0.011,0.069
		c-0.002,0.014-0.006,0.028-0.007,0.043c-0.007,0.066-0.006,0.13,0,0.196c0,0.01,0,0.019,0,0.027
		c0.002,0.013,0.005,0.026,0.007,0.037c0.003,0.022,0.008,0.04,0.012,0.06c0.013,0.054,0.027,0.106,0.046,0.16
		c0.007,0.02,0.017,0.039,0.026,0.059c0.007,0.016,0.013,0.033,0.022,0.05c0.027,0.051,0.059,0.1,0.094,0.149
		c0.008,0.009,0.011,0.02,0.017,0.029L51.12,77.532c0.053,0.068,0.115,0.127,0.182,0.179c0.009,0.008,0.021,0.013,0.03,0.02
		c0.074,0.054,0.155,0.097,0.242,0.131c0.025,0.01,0.05,0.019,0.076,0.027c0.099,0.03,0.201,0.052,0.309,0.052h0.003h0.001
		c0.107,0,0.212-0.021,0.312-0.052c0.026-0.009,0.052-0.018,0.077-0.027c0.085-0.034,0.166-0.076,0.239-0.129
		c0.01-0.008,0.022-0.013,0.033-0.021c0.065-0.052,0.129-0.11,0.181-0.179l25.736-32.574c0.294-0.194,0.489-0.524,0.489-0.9
		C79.031,43.749,78.901,43.47,78.693,43.274 M67.069,34.21l-6.428,8.116l-6.427-8.116H67.069z M53.271,36.48l5.149,6.501H45.565
		l6.428-8.115L53.271,36.48z M59.246,45.131l-3.06,11.562l-2.851-11.562H59.246z M50.593,45.131l-2.826,11.534l-3.03-11.534H50.593z
		 M49.77,34.21l-6.427,8.116l-6.428-8.116H49.77z M34.693,34.866l1.601,2.022l4.826,6.093H28.266L34.693,34.866z M42.514,45.131
		l3.441,13.098L29.167,45.131H42.514z M32.421,50.396l14.436,11.263l2.759,10.5L32.421,50.396z M51.967,72.65l-3.055-11.626
		l3.055-12.466l3.075,12.466L51.967,72.65z M54.323,72.143l2.774-10.484l14.392-11.244L54.323,72.143z M58.007,58.221l3.462-13.089
		h13.292L58.007,58.221z M62.864,42.981l6.428-8.115l6.427,8.115H62.864z"/>
</g>
</svg>
