<svg version="1.1"
	 xmlns="http://www.w3.org/2000/svg" xmlns:xlink="http://www.w3.org/1999/xlink" xmlns:a="http://ns.adobe.com/AdobeSVGViewerExtensions/3.0/"
	 x="0px" y="0px" width="104px" height="104px" viewBox="0 0 104 104" overflow="visible" enable-background="new 0 0 104 104"
	 xml:space="preserve" fill="#ffffff">
<defs>
</defs>
<g>
	<defs>
		<rect id="SVGID_1_" width="104" height="104"/>
	</defs>
	<clipPath id="SVGID_2_">
		<use xlink:href="#SVGID_1_"  overflow="visible"/>
	</clipPath>
	
		<circle clip-path="url(#SVGID_2_)" fill="none" stroke="#ffffff" stroke-width="3" stroke-miterlimit="10" cx="52" cy="52" r="50.5"/>
	<path clip-path="url(#SVGID_2_)" d="M70.532,53.348c-1.321-0.165-2.726-0.165-4.128,0l-11.23,1.982v16.516l0.165,0.165
		c3.632,5.119,10.651,9.744,12.716,10.982l0.414,0.166l0.33-0.249c3.716-2.395,8.919-6.357,12.717-11.23l0.166-0.165V55.33
		L70.532,53.348z M67.807,81.178c-2.642-1.735-8.174-5.615-11.23-9.829v-5.283h11.23V81.178z M80.359,64.66H69.128V54.586
		c0.414,0,0.826,0,1.156,0.083l9.992,1.733v8.258H80.359z"/>
	<path clip-path="url(#SVGID_2_)" d="M76.313,49.632h2.147c0-14.864-12.057-27.004-26.839-27.004
		c-14.781,0-26.838,12.057-26.838,26.838c0,14.782,12.8,26.839,27.581,26.839V76.14v-2.807V49.632h23.123H76.313z M50.797,25.684
		v9.331h-5.451c1.239-3.386,2.973-6.523,5.038-9.331H50.797z M41.3,48.145h-6.607c0.083-4.128,1.156-8.093,2.973-11.726h5.616
		C42.125,40.135,41.465,44.099,41.3,48.145 M44.851,36.501h5.946v11.727h-8.011C42.952,44.099,43.612,40.135,44.851,36.501
		 M41.3,49.632C41.3,49.714,41.3,49.714,41.3,49.632c0,4.294,0.578,8.423,1.734,12.222h-4.955
		c-2.064-3.717-3.303-7.846-3.468-12.222H41.3z M42.786,49.714L42.786,49.714l8.093-0.082v12.305h-6.276
		C43.364,58.055,42.786,53.926,42.786,49.714 M48.484,25.849c-1.982,2.808-3.551,5.863-4.707,9.084h-5.284
		c2.063-3.469,5.037-6.524,8.587-8.919C47.576,26.014,47.989,25.932,48.484,25.849 M43.117,27.17
		c-2.561,2.229-4.707,4.872-6.359,7.763h-4.047C35.354,31.547,38.988,28.822,43.117,27.17 M31.638,36.501h4.377
		c-1.734,3.634-2.726,7.598-2.808,11.727h-5.368C28.004,43.852,29.408,39.888,31.638,36.501 M33.207,49.632
		c0.165,4.376,1.239,8.505,3.221,12.222h-4.955c-2.313-3.551-3.716-7.763-3.716-12.222H33.207z M32.546,63.422h4.707
		c2.065,3.469,4.955,6.524,8.424,9.001C40.391,70.855,35.767,67.634,32.546,63.422 M38.988,63.422h4.459
		c0.908,2.892,2.23,5.615,3.716,8.176C43.86,69.451,41.052,66.644,38.988,63.422 M50.053,73.167
		c-2.147-2.974-3.798-6.276-5.037-9.827h5.863v9.827C50.549,73.25,50.301,73.25,50.053,73.167 M70.451,35.015h-3.8
		c-1.568-2.808-3.633-5.368-6.11-7.598C64.422,28.987,67.807,31.629,70.451,35.015 M56.411,26.179
		c3.552,2.313,6.441,5.368,8.507,8.836h-5.12c-1.157-3.22-2.809-6.276-4.79-9.083C55.421,25.932,55.916,26.014,56.411,26.179
		 M52.281,25.684h0.58c2.229,2.89,3.962,6.028,5.201,9.249h-5.863v-9.249H52.281z M52.281,48.145V36.501h6.442
		c1.239,3.634,1.9,7.598,1.9,11.727h-8.343V48.145z M62.109,48.145c-0.083-4.128-0.661-8.01-1.816-11.726h5.45
		c1.816,3.551,2.892,7.515,2.973,11.726H62.109z M70.202,48.145c-0.083-4.128-1.073-8.093-2.808-11.726h4.046
		c2.23,3.386,3.634,7.433,3.883,11.726H70.202z"/>
</g>
</svg>
