<svg version="1.1"
	 xmlns="http://www.w3.org/2000/svg" xmlns:xlink="http://www.w3.org/1999/xlink" xmlns:a="http://ns.adobe.com/AdobeSVGViewerExtensions/3.0/"
	 x="0px" y="0px" width="104px" height="104px" viewBox="0 0 104 104" overflow="visible" enable-background="new 0 0 104 104"
	 xml:space="preserve" fill="#ffffff">
<defs>
</defs>
<g>
	<defs>
		<rect id="SVGID_1_" width="104" height="104"/>
	</defs>
	<clipPath id="SVGID_2_">
		<use xlink:href="#SVGID_1_"  overflow="visible"/>
	</clipPath>
	
		<circle clip-path="url(#SVGID_2_)" fill="none" stroke="#ffffff" stroke-width="3" stroke-miterlimit="10" cx="52" cy="52" r="50.5"/>
	<path clip-path="url(#SVGID_2_)" fill-rule="evenodd" clip-rule="evenodd" d="M63.529,56.381c-1.71-0.601-3.156-1.152-4.634-1.599
		c-0.354-0.106-0.882,0.03-1.213,0.24c-0.567,0.358-1.04,0.861-1.573,1.321c0.195,0.891,0.67,1.714,0.037,2.539
		c-0.767,0.998-1.582,1.949-2.78,2.428c-0.897,0.359-1.771-0.09-2.307-1.086c-0.429-0.796-0.249-2.041,0.413-2.572
		c0.287-0.229,0.633-0.404,0.976-0.537c1.434-0.555,2.468-1.638,3.563-2.641c0.072-0.065,0.057-0.229,0.116-0.51
		c-0.335,0.076-0.623,0.089-0.866,0.205c-1.409,0.664-2.773,1.381-3.938,2.464c-0.477,0.442-1.144,0.789-1.78,0.937
		c-3.552,0.822-6.734,2.54-9.969,4.1c-2.785,1.346-5.695,2.083-8.74,2.381c-1.543,0.152-3.092,0.31-4.64,0.334
		c-1.595,0.024-2.088-0.908-1.209-2.326c0.85-1.37,1.789-2.695,2.799-3.953c1.519-1.89,3.135-3.705,4.714-5.558
		c-0.003-0.05,0.01-0.12-0.014-0.172c-0.907-1.949-0.836-2.326,0.858-3.541c0.857-0.615,1.781-1.134,2.662-1.715
		c0.245-0.159,0.446-0.383,0.681-0.589c-1.552-1.22-1.75-1.219-3.616-0.041c0.068,0.468,0.274,0.97,0.161,1.384
		c-0.095,0.346-0.523,0.661-0.876,0.865c-0.802,0.461-1.621,0.917-2.484,1.242c-1,0.375-1.8,0.012-2.188-0.829
		c-0.436-0.951-0.227-1.856,0.642-2.44c0.566-0.379,1.191-0.673,1.8-0.987c0.663-0.342,1.339-0.659,2.003-1
		c0.104-0.053,0.171-0.178,0.383-0.409c-2.32-1.733-5.05-2.714-7.594-4.248c0.579-0.855,1.228-0.858,1.982-0.573
		c1.448,0.548,2.912,1.056,4.354,1.621c4.903,1.921,9.807,3.844,14.695,5.804c1.685,0.674,3.353,0.776,5.093,0.27
		c1.366-0.398,2.744-0.77,4.137-1.056c1.19-0.244,2.016-0.868,2.584-1.918c1.183-2.188,2.384-4.367,3.601-6.591
		c-2.256-1.363-4.811-1.939-6.854-3.564c1.927,0.629,3.855,1.248,5.776,1.892c0.998,0.335,1.957,0.797,3.055,0.732
		c0.227-0.013,0.56,0.062,0.677,0.219c0.717,0.97,1.858,0.931,2.842,1.22c2.416,0.713,4.854,1.349,7.288,2.351
		c-0.224,0.057-0.47,0.207-0.666,0.156c-2.938-0.756-5.868-1.541-8.801-2.314c-0.17-0.044-0.354-0.04-0.61-0.067
		c-2.234,4.168-3.252,8.813-5.295,13.244c8.488,3.242,16.977,6.485,25.455,9.723c-0.261,0.986-0.48,1.217-1.141,1.071
		c-0.847-0.187-1.68-0.438-2.508-0.693c-4.325-1.327-8.646-2.665-12.97-3.999c-0.708-0.218-1.419-0.43-2.114-0.641
		c-0.661,0.588-1.299,1.154-1.854,1.646c0.677,2.467,0.175,3.806-1.78,5.121c-0.962,0.646-2.235,0.455-2.821-0.426
		c-0.595-0.895-0.41-2.463,0.463-2.992c1.247-0.754,2.278-1.732,3.251-2.79C62.995,57.255,63.162,56.927,63.529,56.381
		 M38.337,50.029c1.017-0.44,2.278-0.275,3.269-1.29c-0.891-0.45-1.648-0.834-2.374-1.202c-0.645,0.446-1.199,0.828-1.749,1.209
		C37.76,49.164,37.997,49.517,38.337,50.029"/>
</g>
</svg>
